<svg width="82" height="82" viewBox="0 0 82 82" fill="none" xmlns="http://www.w3.org/2000/svg">
<g filter="url(#filter0_b_64_54)">
<rect x="1" y="1" width="80" height="80" rx="14" stroke="url(#paint0_linear_64_54)"/>
</g>
<g filter="url(#filter1_b_64_54)">
<rect x="5" y="5" width="72" height="72" rx="12" fill="url(#paint1_linear_64_54)" fill-opacity="0.2"/>
</g>
<path d="M50 35C50 36.6569 48.6569 38 47 38C45.3431 38 44 36.6569 44 35C44 33.3431 45.3431 32 47 32C48.6569 32 50 33.3431 50 35Z" fill="url(#paint2_linear_64_54)"/>
<path fill-rule="evenodd" clip-rule="evenodd" d="M40.9139 24.875H41.0861C44.5486 24.875 47.2622 24.875 49.3794 25.1596C51.5465 25.451 53.2566 26.059 54.5988 27.4012C55.941 28.7434 56.549 30.4535 56.8404 32.6206C57.125 34.7378 57.125 37.4513 57.125 40.9139V41.0464C57.125 43.9095 57.125 46.2534 56.9695 48.1618C56.8132 50.0796 56.493 51.6821 55.7763 53.0131C55.4602 53.6001 55.0717 54.1258 54.5988 54.5988C53.2566 55.941 51.5465 56.549 49.3794 56.8404C47.2622 57.125 44.5487 57.125 41.0861 57.125H40.9139C37.4513 57.125 34.7378 57.125 32.6206 56.8404C30.4535 56.549 28.7434 55.941 27.4012 54.5988C26.2113 53.4089 25.5968 51.9278 25.27 50.0906C24.949 48.2859 24.8903 46.0405 24.8781 43.2522C24.875 42.543 24.875 41.7929 24.875 41.0015V40.9139C24.875 37.4514 24.875 34.7378 25.1596 32.6206C25.451 30.4535 26.059 28.7434 27.4012 27.4012C28.7434 26.059 30.4535 25.451 32.6206 25.1596C34.7378 24.875 37.4514 24.875 40.9139 24.875ZM32.9204 27.3896C31.0028 27.6474 29.8467 28.1377 28.9922 28.9922C28.1377 29.8467 27.6474 31.0028 27.3896 32.9204C27.1274 34.8703 27.125 37.4327 27.125 41C27.125 41.4358 27.125 41.8572 27.1255 42.2652L28.6272 40.9513C29.9941 39.7552 32.0543 39.8238 33.3386 41.1081L39.7732 47.5427C40.804 48.5736 42.4267 48.7141 43.6194 47.8759L44.0667 47.5615C45.7831 46.3553 48.1052 46.4951 49.6645 47.8984L53.9102 51.7195C54.3376 50.822 54.5914 49.6427 54.7269 47.9791C54.8742 46.1724 54.875 43.9188 54.875 41C54.875 37.4327 54.8726 34.8703 54.6104 32.9204C54.3526 31.0028 53.8623 29.8467 53.0078 28.9922C52.1533 28.1377 50.9972 27.6474 49.0796 27.3896C47.1297 27.1274 44.5673 27.125 41 27.125C37.4327 27.125 34.8703 27.1274 32.9204 27.3896Z" fill="url(#paint3_linear_64_54)"/>
<defs>
<filter id="filter0_b_64_54" x="-93.5" y="-93.5" width="269" height="269" filterUnits="userSpaceOnUse" color-interpolation-filters="sRGB">
<feFlood flood-opacity="0" result="BackgroundImageFix"/>
<feGaussianBlur in="BackgroundImageFix" stdDeviation="47"/>
<feComposite in2="SourceAlpha" operator="in" result="effect1_backgroundBlur_64_54"/>
<feBlend mode="normal" in="SourceGraphic" in2="effect1_backgroundBlur_64_54" result="shape"/>
</filter>
<filter id="filter1_b_64_54" x="-89" y="-89" width="260" height="260" filterUnits="userSpaceOnUse" color-interpolation-filters="sRGB">
<feFlood flood-opacity="0" result="BackgroundImageFix"/>
<feGaussianBlur in="BackgroundImageFix" stdDeviation="47"/>
<feComposite in2="SourceAlpha" operator="in" result="effect1_backgroundBlur_64_54"/>
<feBlend mode="normal" in="SourceGraphic" in2="effect1_backgroundBlur_64_54" result="shape"/>
</filter>
<linearGradient id="paint0_linear_64_54" x1="41" y1="81" x2="41" y2="1" gradientUnits="userSpaceOnUse">
<stop stop-color="#282D35"/>
<stop offset="1" stop-color="#282D35" stop-opacity="0.36"/>
</linearGradient>
<linearGradient id="paint1_linear_64_54" x1="41" y1="77" x2="41" y2="39.7846" gradientUnits="userSpaceOnUse">
<stop stop-color="#7A7F99"/>
<stop offset="1" stop-color="#25262E" stop-opacity="0.7"/>
</linearGradient>
<linearGradient id="paint2_linear_64_54" x1="41" y1="24.875" x2="41" y2="57.125" gradientUnits="userSpaceOnUse">
<stop stop-color="white"/>
<stop offset="1" stop-color="#999999"/>
</linearGradient>
<linearGradient id="paint3_linear_64_54" x1="41" y1="24.875" x2="41" y2="57.125" gradientUnits="userSpaceOnUse">
<stop stop-color="white"/>
<stop offset="1" stop-color="#999999"/>
</linearGradient>
</defs>
</svg>
