<svg width="1482" height="951" viewBox="0 0 1482 951" fill="none" xmlns="http://www.w3.org/2000/svg">
<g filter="url(#filter0_f_93_44)">
<path d="M1213.8 1119.73C791.697 505.609 -194.847 165.719 24.2989 -81.3247" stroke="url(#paint0_linear_93_44)" stroke-width="88"/>
</g>
<g filter="url(#filter1_f_93_44)">
<path d="M1944.16 1044C1566.59 401.54 606.578 -7.32694 842.661 -238.24" stroke="url(#paint1_linear_93_44)" stroke-width="88"/>
</g>
<path d="M89.8498 1V949.576M456.474 1V949.576M1499.51 116.941H-5.31836M1499.51 291.044H-5.31435M1499.51 471.738H-5.31435M1499.51 654.315H-5.31435M636.206 1V949.576M832.311 1V949.576M1017.41 1V949.576M1208.03 1V949.576M1406.21 1V949.576M273.801 1V949.576M1499.51 851.66H-5.31435" stroke="url(#paint2_diamond_93_44)" stroke-opacity="0.1" stroke-width="0.941584"/>
<defs>
<filter id="filter0_f_93_44" x="-361.262" y="-420.723" width="1921.52" height="1875.58" filterUnits="userSpaceOnUse" color-interpolation-filters="sRGB">
<feFlood flood-opacity="0" result="BackgroundImageFix"/>
<feBlend mode="normal" in="SourceGraphic" in2="BackgroundImageFix" result="shape"/>
<feGaussianBlur stdDeviation="155.1" result="effect1_foregroundBlur_93_44"/>
</filter>
<filter id="filter1_f_93_44" x="451.579" y="-579.895" width="1840.72" height="1956.39" filterUnits="userSpaceOnUse" color-interpolation-filters="sRGB">
<feFlood flood-opacity="0" result="BackgroundImageFix"/>
<feBlend mode="normal" in="SourceGraphic" in2="BackgroundImageFix" result="shape"/>
<feGaussianBlur stdDeviation="155.1" result="effect1_foregroundBlur_93_44"/>
</filter>
<linearGradient id="paint0_linear_93_44" x1="-206.996" y1="725.337" x2="820.152" y2="1035.52" gradientUnits="userSpaceOnUse">
<stop stop-color="#273DFF"/>
<stop offset="1" stop-color="#243BFF" stop-opacity="0"/>
</linearGradient>
<linearGradient id="paint1_linear_93_44" x1="554.849" y1="550.027" x2="1557.46" y2="932.137" gradientUnits="userSpaceOnUse">
<stop stop-color="#273DFF"/>
<stop offset="1" stop-color="#243BFF" stop-opacity="0"/>
</linearGradient>
<radialGradient id="paint2_diamond_93_44" cx="0" cy="0" r="1" gradientUnits="userSpaceOnUse" gradientTransform="translate(883.543 201.804) rotate(89.7432) scale(642.328 1855.92)">
<stop stop-color="white" stop-opacity="0"/>
<stop offset="0.269562" stop-color="white"/>
<stop offset="0.517607" stop-color="white" stop-opacity="0"/>
<stop offset="0.780511" stop-color="white"/>
<stop offset="1" stop-color="white" stop-opacity="0"/>
</radialGradient>
</defs>
</svg>
