<svg width="226" height="38" viewBox="0 0 226 38" fill="none" xmlns="http://www.w3.org/2000/svg">
<path d="M22.1179 29.0005H14.2499C6.38001 29.0005 0 22.6205 0 14.7506C0 6.88001 6.38001 0.5 14.2499 0.5H38.5722L33.087 10.0002H14.2499C11.6264 10.0002 9.50016 12.127 9.50016 14.7499C9.50016 17.3734 11.627 19.4997 14.2499 19.4997H27.5771L22.1179 28.9998V29.0005Z" fill="#053FF1"/>
<path d="M33.0877 10H40.9048C48.7748 10 55.1548 16.38 55.1548 24.2499C55.1548 32.1198 48.7748 38.4998 40.9048 38.4998H16.6334L22.1185 28.9997H40.9055C43.529 28.9997 45.6552 26.8728 45.6552 24.2499C45.6552 21.6264 43.5284 19.5002 40.9055 19.5002H27.5783L33.0883 10H33.0877Z" fill="#053FF1"/>
<path d="M78.2936 29.0472C81.2535 29.0472 83.2266 27.885 83.1898 25.5944C83.1898 23.3053 81.2167 21.8947 76.567 20.733C72.0578 19.6423 68.4296 17.5629 68.4296 13.5477C68.4296 9.21391 71.9539 6.50098 77.0256 6.50098C82.4519 6.50098 86.1149 9.88272 86.6431 14.6383L82.768 14.8505C82.3461 11.8906 80.1609 9.95425 76.9545 9.95425C74.2778 9.95425 72.3395 11.3629 72.3743 13.5824C72.3743 16.2954 75.6155 17.1048 78.6444 17.9162C83.5406 19.1494 87.1345 21.4753 87.1345 25.3137C87.1345 29.9997 82.9066 32.501 78.08 32.501C72.4072 32.501 68.3218 29.154 67.898 24.0109L71.8079 23.7644C72.4072 26.9345 74.6272 29.0482 78.2902 29.0482H78.2936V29.0472Z" fill="#F5F7FF"/>
<path d="M88.8774 7.1001H92.7874V10.6592H88.8774V7.1001ZM92.6815 13.405V32.077H88.947V13.405H92.6815Z" fill="#F5F7FF"/>
<path d="M120.969 20.0639V32.0783H117.234V21.2276C117.234 17.9169 116.072 16.1192 113.958 16.1192C111.282 16.1192 109.8 17.9864 109.8 21.2276V32.0783H106.278V21.2276C106.278 17.9864 105.081 16.1192 103.002 16.1192C100.36 16.1192 98.8433 17.9864 98.8433 21.2276V32.0783H95.1107V13.4043H98.5983V16.468H99.1299C99.1299 15.688 99.4366 14.9315 100.01 14.4033C101.013 13.4807 102.347 12.9819 103.918 12.9819C106.595 12.9819 108.533 14.3906 109.345 16.8571C110.19 14.3558 112.127 12.9819 114.945 12.9819C118.715 12.9819 120.97 15.518 120.97 20.0634H120.968L120.969 20.0639Z" fill="#F5F7FF"/>
<path d="M144.919 7.06592V32.0791H141.184V7.06592H144.919Z" fill="#F5F7FF"/>
<path d="M158.974 13.4033V24.2541C158.974 27.5662 157.284 29.3625 154.604 29.3625C152.068 29.3625 151.081 27.5667 151.081 24.2541V13.4033H147.347V25.4178C147.347 29.5046 149.495 32.4992 153.617 32.4992C155.19 32.4992 156.632 32.0715 157.728 31.1013C158.323 30.5751 158.652 29.8113 158.652 29.0165H159.182V29.0112V32.0749H162.704V13.4033H158.972H158.974Z" fill="#F5F7FF"/>
<path d="M135.022 13.4033V24.2541C135.022 27.5663 133.332 29.3625 130.652 29.3625C128.116 29.3625 127.129 27.5667 127.129 24.2541V13.4033H123.395V25.4178C123.395 29.5046 125.543 32.4992 129.665 32.4992C131.238 32.4992 132.68 32.0715 133.776 31.1013C134.371 30.5751 134.7 29.8113 134.7 29.0165H135.23V29.0112V32.0749H138.752V13.4033H135.02H135.022Z" fill="#F5F7FF"/>
<path d="M172.231 16.0834C170.329 16.0834 168.778 17.0702 168.778 18.7253C168.813 20.4172 170.963 21.086 172.934 21.473C177.584 22.3187 180.544 23.552 180.544 27.2154C180.544 30.8789 176.881 32.4992 172.9 32.4992C168.144 32.4992 164.726 30.1043 164.445 26.1924L168.285 25.9459C168.673 28.0596 170.293 29.3987 172.865 29.3987C174.557 29.3987 176.671 28.7995 176.671 27.0381C176.636 25.0302 174.276 24.7837 172.268 24.3251C168.287 23.4794 164.905 22.3868 164.905 18.8297C164.905 15.2725 167.865 12.9814 172.515 12.9814C176.566 12.9814 179.666 15.3421 180.265 19.0761L176.425 19.2883C176.037 17.2804 174.171 16.0819 172.232 16.0819V16.0839L172.231 16.0834Z" fill="#F5F7FF"/>
<path d="M193.939 7.06592H189.078L180.058 32.0791H184.11L186.399 25.5621H196.616L198.871 32.0791H202.959L193.94 7.06592H193.939ZM196.241 21.8462H186.775V21.2891H186.779C187.436 21.2891 188.023 20.8707 188.237 20.2479L191.509 10.6926L194.783 20.2479C194.996 20.8712 195.581 21.2891 196.241 21.2891V21.8462Z" fill="#F5F7FF"/>
<path d="M207.632 7.06592V32.0791H203.827V7.06592H207.632Z" fill="#F5F7FF"/>
<path d="M218.792 3.00506V3.96268H216.903V9H215.903V3.95762H214V3H218.797L218.792 3.00506ZM219.642 3.00506H221.019L222.824 7.95762L224.642 3.00506H226V8.9962H225V4.86464L223.454 8.9962H222.195L220.649 4.86464V8.9962H219.643V3.00506H219.642Z" fill="#F5F7FF"/>
</svg>
